<?xml version="1.0" encoding="UTF-8"?>
<svg width="84px" height="53px" viewBox="0 0 84 53" version="1.1" xmlns="http://www.w3.org/2000/svg" xmlns:xlink="http://www.w3.org/1999/xlink">
    <!-- Generator: Sketch 47.1 (45422) - http://www.bohemiancoding.com/sketch -->
    <title>Logo</title>
    <desc>Created with Sketch.</desc>
    <defs></defs>
    <g id="Ikke-pålogget-planlegger" stroke="none" stroke-width="1" fill="none" fill-rule="evenodd">
        <g id="Planlegger-1.1A" transform="translate(-138.000000, -16.000000)">
            <g id="Stacked-Group" transform="translate(20.000000, 16.000000)">
                <g id="Logo" transform="translate(118.000000, 0.000000)">
                    <path d="M38.4965496,53 C23.8652511,53 12,41.1357703 12,26.5014377 C12,11.8659549 23.8652511,0 38.4965496,0 C53.1335988,0 65,11.8659549 65,26.5014377 C65,41.1357703 53.1335988,53 38.4965496,53 Z" id="Fill-1" fill="#D0232B"></path>
                    <polyline id="Fill-3" fill="#D0232B" points="0 39 5.60959498 25 11 25 5.39755252 39 0 39"></polyline>
                    <polyline id="Fill-5" fill="#D0232B" points="67 39 72.2261645 25 75 25 69.7732734 39 67 39"></polyline>
                    <polyline id="Fill-7" fill="#D0232B" points="77 39 82.4605639 25 84 25 78.5382615 39 77 39"></polyline>
                    <path d="M41.5351859,33.9397735 L38.8220103,33.9397735 C37.7429128,33.9397735 36.8644315,33.0209334 36.8644315,31.8858957 C36.8644315,30.7508579 37.7429128,29.8272135 38.8220103,29.8272135 L39.5810364,29.8272135 C40.6584192,29.8272135 41.5351859,30.7508579 41.5351859,31.8858957 L41.5351859,33.9397735 Z M61.6333757,25 L56.9517617,25 C56.9517617,25 56.6294042,25 56.5156646,25.299674 L53.9242304,33.6328929 L51.3350824,25.299674 C51.2207713,25 50.8961275,25 50.8961275,25 L41.8935514,25 C41.6986509,25 41.5351859,25.171757 41.5351859,25.3753432 L41.5351859,28.2051304 C41.5351859,25.960278 39.2615367,25 37.9303832,25 C34.9480047,25 32.9527033,27.0640872 32.3314221,30.2001544 C32.2971287,28.120453 32.1330922,27.374571 31.5998306,26.6106726 C31.3540616,26.2371311 31.0002685,25.9212423 30.6144683,25.6612045 C29.8205772,25.1723576 29.1072756,25 27.5743628,25 L25.7756765,25 C25.7756765,25 25.4498897,25 25.335007,25.299674 L23.6974995,29.5617708 L23.6974995,25.3753432 C23.6974995,25.171757 23.5363207,25 23.3414202,25 L19.1776358,25 C19.1776358,25 18.8558499,25 18.7392525,25.299674 L17.0371592,29.7335278 C17.0371592,29.7335278 16.8668355,30.176733 17.2554935,30.176733 L18.8558499,30.176733 L18.8558499,38.6234557 C18.8558499,38.8336479 19.0130277,39 19.2136438,39 L23.3414202,39 C23.5363207,39 23.6974995,38.8336479 23.6974995,38.6234557 L23.6974995,30.176733 L25.3064292,30.176733 C26.2300634,30.176733 26.4255355,30.2031572 26.7850441,30.3791181 C27.0010923,30.4649966 27.1959928,30.6367536 27.3028737,30.8391386 C27.520065,31.2691318 27.5743628,31.7862045 27.5743628,33.3115992 L27.5743628,38.6234557 C27.5743628,38.8336479 27.73497,39 27.9327283,39 L31.8896094,39 C31.8896094,39 32.3365661,39 32.5131768,38.5357756 L33.3899435,36.2578929 C34.5553459,37.9742622 36.4746304,39 38.8591614,39 L39.3804203,39 C39.3804203,39 39.8302348,39 40.0079887,38.5357756 L41.5351859,34.5613418 L41.5351859,38.6234557 C41.5351859,38.8336479 41.6986509,39 41.8935514,39 L45.9315935,39 C45.9315935,39 46.3779786,39 46.556304,38.5357756 C46.556304,38.5357756 48.1726639,34.3217227 48.1778079,34.2892931 L48.1806657,34.2892931 C48.2423937,33.9397735 47.8211571,33.9397735 47.8211571,33.9397735 L46.3796932,33.9397735 L46.3796932,26.7091627 L50.9144173,38.5357756 C51.0921712,39 51.5379848,39 51.5379848,39 L56.3099045,39 C56.3099045,39 56.7591474,39 56.9351866,38.5357756 L61.9631634,25.4534146 C62.1380595,25 61.6333757,25 61.6333757,25 L61.6333757,25 Z" id="Fill-8" fill="#FFFFFE"></path>
                </g>
            </g>
        </g>
    </g>
</svg>