<?xml version="1.0" encoding="UTF-8"?>
<svg width="24px" height="24px" viewBox="0 0 24 24" version="1.1" xmlns="http://www.w3.org/2000/svg" xmlns:xlink="http://www.w3.org/1999/xlink">
    <!-- Generator: Sketch 47.1 (45422) - http://www.bohemiancoding.com/sketch -->
    <title>Icons/add_outline</title>
    <desc>Created with Sketch.</desc>
    <defs>
        <path d="M20.5010486,3.53113043 C18.2386938,1.25947826 15.2291775,0.00626086957 11.9994782,0 C5.39503015,0 0.0125458204,5.37182609 2.3561353e-05,11.976 C-0.00623756815,15.1815652 1.23555312,18.1972174 3.49790791,20.4688696 C5.7602627,22.7394783 8.77082247,23.9937391 11.9775643,24 C18.6039264,24 23.9874542,18.6271304 23.9999765,12.021913 C24.0062376,8.8173913 22.7634034,5.80173913 20.5010486,3.53113043 Z" id="path-1"></path>
    </defs>
    <g id="Søknad-ES" stroke="none" stroke-width="1" fill="none" fill-rule="evenodd">
        <g id="Image-assets" transform="translate(-163.000000, -774.000000)">
            <g id="Stacked-Group" transform="translate(147.000000, 20.000000)">
                <g transform="translate(16.000000, 754.000000)" id="Icons/add_outline">
                    <g>
                        <mask id="mask-2" fill="white">
                            <use xlink:href="#path-1"></use>
                        </mask>
                        <path stroke="#0067C5" d="M20.146852,3.88403947 L20.146771,3.88395809 C17.976089,1.70435546 15.0928534,0.505997541 11.9994782,0.5 C5.67074719,0.5 0.512021923,5.64860101 0.500022608,11.9769766 C0.494020029,15.0501691 1.68354863,17.9384927 3.85210448,20.1159605 C6.02125562,22.2930255 8.90491868,23.494 11.9775643,23.5 C18.3251119,23.5 23.4879722,18.3534487 23.4999774,12.0209361 C23.5059792,8.94917357 22.3156837,6.06078388 20.146852,3.88403947 Z"></path>
                        <path d="M18.2616513,12.5217391 L5.73939227,12.5217391 C5.45138031,12.5206957 5.21658796,12.288 5.21763148,12 C5.21763148,11.7130435 5.45138031,11.4782609 5.73939227,11.4782609 L18.2616513,11.4782609 C18.5486197,11.4782609 18.7844556,11.712 18.7834121,12 C18.7834121,12.288 18.5496632,12.5217391 18.2616513,12.5217391 Z" id="Path" fill="#0067C5" mask="url(#mask-2)"></path>
                        <path d="M18.2616513,12.5217391 L5.73939227,12.5217391 C5.45138031,12.5206957 5.21658796,12.288 5.21763148,12 C5.21763148,11.7130435 5.45138031,11.4782609 5.73939227,11.4782609 L18.2616513,11.4782609 C18.5486197,11.4782609 18.7844556,11.712 18.7834121,12 C18.7834121,12.288 18.5496632,12.5217391 18.2616513,12.5217391 Z" id="Path" fill="#0067C5" mask="url(#mask-2)" transform="translate(12.000522, 12.000000) rotate(90.000000) translate(-12.000522, -12.000000) "></path>
                    </g>
                </g>
            </g>
        </g>
    </g>
</svg>