<?xml version="1.0" encoding="UTF-8"?>
<svg width="136px" height="136px" viewBox="0 0 136 136" version="1.1" xmlns="http://www.w3.org/2000/svg" xmlns:xlink="http://www.w3.org/1999/xlink">
    <!-- Generator: Sketch 49.1 (51147) - http://www.bohemiancoding.com/sketch -->
    <title>Spotlight</title>
    <desc>Created with Sketch.</desc>
    <defs>
        <circle id="path-1" cx="68" cy="68" r="68"></circle>
        <circle id="path-3" cx="9.06666667" cy="9.06666667" r="9.06666667"></circle>
    </defs>
    <g id="Experimental" stroke="none" stroke-width="1" fill="none" fill-rule="evenodd">
        <g id="Desktop-/-application-after" transform="translate(-572.000000, -224.000000)">
            <g id="Spotlight/letter" transform="translate(572.000000, 224.000000)">
                <g id="Background">
                    <mask id="mask-2" fill="white">
                        <use xlink:href="#path-1"></use>
                    </mask>
                    <use id="Mask" fill="#C1B5D0" xlink:href="#path-1"></use>
                    <g id="Farge/Grønn/-60" mask="url(#mask-2)" fill="#9BD0B0">
                        <g id="Farge/-NAV-Grønn-60">
                            <polygon id="Fill-42" points="0 136.40118 135.80979 136.40118 135.80979 0 0 0"></polygon>
                        </g>
                    </g>
                </g>
                <g id="Letter" transform="translate(36.266667, 34.000000)">
                    <path d="M5.13048566,34.3489542 C4.34621899,33.5635542 0.634552323,30.8673542 1.41995232,30.0819542 L0.16081899,26.0994209 L29.8847523,0.632287559 C30.6701523,-0.153112441 31.9417523,-0.153112441 32.7282857,0.632287559 L62.4499523,26.0994209 L55.7179523,40.6706876 C56.5010857,41.4549542 31.1019523,54.4565542 30.3176857,55.2430876 L5.13048566,34.3489542 Z" id="Fill-15" fill="#0C576F"></path>
                    <path d="M56.3706421,53.2492124 L6.24330873,53.2492124 C5.89764206,53.2492124 5.61884206,52.9670124 5.61884206,52.6258791 L5.61884206,18.8208124 C5.61884206,18.4762791 5.89764206,18.1963458 6.24330873,18.1963458 L56.3706421,18.1963458 C56.7140421,18.1963458 56.9928421,18.4762791 56.9928421,18.8208124 L56.9928421,52.6258791 C56.9928421,52.9670124 56.7140421,53.2492124 56.3706421,53.2492124" id="Fill-16" fill="#DCDCD2"></path>
                    <g id="Checkmark" transform="translate(22.666667, 23.800000)">
                        <mask id="mask-4" fill="white">
                            <use xlink:href="#path-3"></use>
                        </mask>
                        <g id="Mask"></g>
                        <g id="⚙️/bkdg/+20/-Blå" mask="url(#mask-4)" fill="#0C5EA8">
                            <g id="Farge/-Blå+20-Copy">
                                <polygon id="Fill-66" points="0 18.0486313 18.0035097 18.0486313 18.0035097 0 0 0"></polygon>
                            </g>
                        </g>
                        <path d="M7.43697395,10.749237 L12.7619458,5.60697153 C13.2121969,5.17216908 13.9296746,5.1846927 14.364477,5.63494382 C14.7992795,6.08519494 14.7867559,6.80267262 14.3365047,7.23747508 L8.15244056,13.2093564 C7.70238816,13.643967 6.98534502,13.6316462 6.55048517,13.18198 C6.49030709,13.1345727 6.43405948,13.0803174 6.38287072,13.0193131 L4.0429538,10.2307087 C3.64061843,9.75122404 3.70316025,9.0363677 4.18264487,8.63403233 C4.66212949,8.23169697 5.37698583,8.29423879 5.7793212,8.77372341 L7.43697395,10.749237 Z" id="Mark" fill="#FFFFFF"></path>
                    </g>
                    <path d="M2.5119193,67.6134202 L53.2206526,67.6134202 C54.520586,67.6134202 0.160252635,26.0994202 0.160252635,26.0994202 L0.160252635,65.2617535 C0.160252635,66.5594202 1.2131193,67.6134202 2.5119193,67.6134202" id="Fill-21" fill="#4C92D9"></path>
                    <path d="M60.10044,67.6134202 L9.39170664,67.6134202 C8.09290664,67.6134202 62.4521066,26.0994202 62.4521066,26.0994202 L62.4521066,65.2617535 C62.4521066,66.5594202 61.39924,67.6134202 60.10044,67.6134202" id="Fill-22" fill="#2C79C5"></path>
                </g>
            </g>
        </g>
    </g>
</svg>