<?xml version="1.0" encoding="UTF-8"?>
<svg width="24px" height="24px" viewBox="0 0 24 24" version="1.1" xmlns="http://www.w3.org/2000/svg" xmlns:xlink="http://www.w3.org/1999/xlink">
    <!-- Generator: Sketch 47.1 (45422) - http://www.bohemiancoding.com/sketch -->
    <title>Icons/subtract/outline</title>
    <desc>Created with Sketch.</desc>
    <defs>
        <path d="M20.501026,3.53113043 C18.2386712,1.25947826 15.229155,0.00626086957 11.9994557,0 C5.39500757,0 0.0125232417,5.37182609 9.82660452e-07,11.976 C-0.00626014684,15.1815652 1.23553054,18.1972174 3.49788533,20.4688696 C5.76024012,22.7394783 8.77079989,23.9937391 11.9775417,24 C18.6039038,24 23.9874316,18.6271304 23.9999539,12.021913 C24.006215,8.8173913 22.7633808,5.80173913 20.501026,3.53113043 Z" id="path-1"></path>
    </defs>
    <g id="Söknad-ES" stroke="none" stroke-width="1" fill="none" fill-rule="evenodd">
        <g id="Image-assets" transform="translate(-175.000000, -789.000000)">
            <g id="Stacked-Group" transform="translate(139.000000, 20.000000)">
                <g id="Icons/subtract/outline" transform="translate(36.000000, 769.000000)">
                    <mask id="mask-2" fill="white">
                        <use xlink:href="#path-1"></use>
                    </mask>
                    <path stroke="#0067C5" d="M20.1468294,3.88403947 L20.1467484,3.88395809 C17.9760664,1.70435546 15.0928308,0.505997541 11.9994557,0.5 C5.67072462,0.5 0.511999344,5.64860101 0.500000029,11.9769766 C0.493997451,15.0501691 1.68352605,17.9384927 3.85208191,20.1159605 C6.02123304,22.2930255 8.9048961,23.494 11.9775417,23.5 C18.3250893,23.5 23.4879496,18.3534487 23.4999548,12.0209361 C23.5059566,8.94917357 22.3156611,6.06078388 20.1468294,3.88403947 Z"></path>
                    <path d="M18.2616287,12.5217391 L5.73936969,12.5217391 C5.45135773,12.5206957 5.21656538,12.288 5.2176089,12 C5.2176089,11.7130435 5.45135773,11.4782609 5.73936969,11.4782609 L18.2616287,11.4782609 C18.5485971,11.4782609 18.784433,11.712 18.7833895,12 C18.7833895,12.288 18.5496406,12.5217391 18.2616287,12.5217391 Z" id="Path" fill="#0067C5" mask="url(#mask-2)"></path>
                </g>
            </g>
        </g>
    </g>
</svg>