<?xml version="1.0" encoding="UTF-8"?>
<svg width="18px" height="21px" viewBox="0 0 18 21" version="1.1" xmlns="http://www.w3.org/2000/svg" xmlns:xlink="http://www.w3.org/1999/xlink">
    <!-- Generator: Sketch 47.1 (45422) - http://www.bohemiancoding.com/sketch -->
    <title>Icons/trash</title>
    <desc>Created with Sketch.</desc>
    <defs></defs>
    <g id="Søknad-ES" stroke="none" stroke-width="1" fill="none" fill-rule="evenodd">
        <g id="Image-assets" transform="translate(-186.000000, -747.000000)" fill="#0067C5">
            <g id="Stacked-Group" transform="translate(147.000000, 20.000000)">
                <g id="Icons/trash" transform="translate(36.000000, 725.000000)">
                    <path d="M19.5195313,5.35546875 C19.6888029,5.35546875 19.8352858,5.41731709 19.9589844,5.54101562 C20.0826829,5.66471416 20.1445313,5.81119707 20.1445313,5.98046875 C20.1445313,6.14974043 20.0826829,6.29622334 19.9589844,6.41992188 C19.8352858,6.54362041 19.6888029,6.60546875 19.5195313,6.60546875 L18.6601563,6.60546875 L17.1953125,21.0585938 C17.1692707,21.3971371 17.0292981,21.6835926 16.7753906,21.9179688 C16.5214831,22.1523449 16.2252621,22.2695312 15.8867188,22.2695312 L8.11328125,22.2695312 C7.77473789,22.2695312 7.47851689,22.1523449 7.22460938,21.9179688 C6.97070186,21.6835926 6.82421895,21.3971371 6.78515625,21.0585938 L5.33984375,6.60546875 L4.48046875,6.60546875 C4.31119707,6.60546875 4.16471416,6.54362041 4.04101562,6.41992188 C3.91731709,6.29622334 3.85546875,6.14974043 3.85546875,5.98046875 C3.85546875,5.81119707 3.91731709,5.66471416 4.04101562,5.54101562 C4.16471416,5.41731709 4.31119707,5.35546875 4.48046875,5.35546875 L8.875,5.35546875 L8.875,3.65625 C8.875,3.25260215 9.01822773,2.91406387 9.3046875,2.640625 C9.59114727,2.36718613 9.92968555,2.23046875 10.3203125,2.23046875 L13.6796875,2.23046875 C14.0703145,2.23046875 14.4088527,2.36718613 14.6953125,2.640625 C14.9817723,2.91406387 15.125,3.25260215 15.125,3.65625 L15.125,5.35546875 L19.5195313,5.35546875 Z M10.125,3.65625 L10.125,5.35546875 L13.875,5.35546875 L13.875,3.65625 C13.875,3.60416641 13.8554689,3.55859395 13.8164062,3.51953125 C13.7773436,3.48046855 13.7317711,3.4609375 13.6796875,3.4609375 L10.3203125,3.4609375 C10.2682289,3.4609375 10.2226564,3.48046855 10.1835938,3.51953125 C10.1445311,3.55859395 10.125,3.60416641 10.125,3.65625 Z M15.9648438,20.9414062 L17.390625,6.60546875 L6.609375,6.60546875 L8.03515625,20.9414062 C8.03515625,20.9544271 8.04492178,20.970703 8.06445312,20.9902344 C8.08398447,21.0097657 8.10026035,21.0195312 8.11328125,21.0195312 L15.8867188,21.0195312 C15.8997396,21.0195312 15.9160155,21.0130209 15.9355469,21 C15.9550782,20.9869791 15.9648438,20.967448 15.9648438,20.9414062 Z" id="trash---simple-line-icons"></path>
                </g>
            </g>
        </g>
    </g>
</svg>