<svg width="184px" height="184px" viewBox="0 0 184 184" version="1.1" xmlns="http://www.w3.org/2000/svg" xmlns:xlink="http://www.w3.org/1999/xlink">
    <title>Icons/employee/large</title>
    <desc>Created with Sketch.</desc>
    <defs>
        <circle id="path-1" cx="92" cy="92" r="92"></circle>
        <path d="M102.071908,49.3538147 L101.982777,49.3538147 C101.982777,22.0966599 81.9013756,0 57.124616,0 C32.3512199,0 12.2698186,22.0966599 12.2698186,49.3538147 L12.2698186,49.3784982 C12.26141,72.6566744 0,85.966012 0,85.966012 C0,85.966012 12.1083736,100.506233 57.1262978,100.506233 C57.1414332,100.506233 57.1565687,100.506233 57.1717042,100.506233 C57.1868396,100.506233 57.1986116,100.506233 57.2137471,100.506233 C102.235035,100.506233 114.343408,85.966012 114.343408,85.966012 C114.343408,85.966012 102.071908,72.6484466 102.071908,49.3538147" id="path-3"></path>
        <path d="M65.1669177,4.98286981 C75.1203676,10.2927535 89.6178969,23.2488322 89.6178969,35.2908103 L89.6178969,55.1612429 C89.6178969,66.8932958 80.107189,76.4040037 68.3751362,76.4040037 L0,76.4040037 L0,35.2908103 C0,23.7305256 13.1318409,11.3278079 22.8883622,5.65623079 C24.6784186,8.72811765 29.4040616,20.9755539 43.7849527,20.9755539 C58.0602404,20.9755539 64.8760562,8.02476393 65.1669177,4.98286981 Z" id="path-5"></path>
    </defs>
    <g id="Icons/employee/large" stroke="none" stroke-width="1" fill="none" fill-rule="evenodd">
        <mask id="mask-2" fill="white">
            <use xlink:href="#path-1"></use>
        </mask>
        <use id="Mask" fill="#C1B5D0" xlink:href="#path-1"></use>
        <g id="Farge/-Lilla/-60" mask="url(#mask-2)" fill="#C1B5D0">
            <polygon id="Fill-17" points="0 184 184 184 184 0 0 0"></polygon>
        </g>
        <g id="mennesker/kvinne/-forfra/-B" mask="url(#mask-2)">
            <g transform="translate(31.000000, 23.000000)" id="Group-2">
                <g transform="translate(3.569964, 10.558902)">
                    <g id="mennesker/kvinne/⚙️/-hår/-halvlangt">
                        <g id="hårfarge/-brunn">
                            <mask id="mask-4" fill="white">
                                <use xlink:href="#path-3"></use>
                            </mask>
                            <use id="Mask" fill="#E57F68" xlink:href="#path-3"></use>
                            <g id="mennesker/⚙️/hårfarge/-rød" mask="url(#mask-4)" fill="#D2654C">
                                <g transform="translate(0.000000, -3.291132)" id="hårfarge/-rød">
                                    <rect x="0" y="0" width="116.1387" height="129.85902"></rect>
                                </g>
                            </g>
                        </g>
                    </g>
                    <g id="Group" transform="translate(11.713944, 26.397254)">
                        <path d="M23.4278885,62.1536123 C25.1369503,64.8480341 29.9371324,112.18833 44.3456461,112.18833 C58.7572784,112.18833 65.2634036,63.967823 65.2634036,61.4578605 C43.1991665,48.996249 23.4278885,62.1536123 23.4278885,62.1536123 Z" id="Combined-Shape" fill="#E7E5E2"></path>
                        <g id="mennesker/⚙️/kropp/sideprofil/-nav-ansatt" transform="translate(0.000000, 56.094165)">
                            <mask id="mask-6" fill="white">
                                <use xlink:href="#path-5"></use>
                            </mask>
                            <use id="Mask" fill="#D8A25D" fill-rule="evenodd" xlink:href="#path-5"></use>
                            <g id="+20/-Lilla" mask="url(#mask-6)" fill-rule="evenodd" stroke-width="1">
                                <g transform="translate(-54.766493, -33.507994)">
                                    <g>
                                        <polygon id="Fill-58" fill="#5C4378" points="0 155.020147 209.045912 155.020147 209.045912 0 0 0"></polygon>
                                    </g>
                                </g>
                            </g>
                            <g id="nav-id/-kort/-rød" mask="url(#mask-6)" fill-rule="evenodd" stroke-width="1">
                                <g transform="translate(51.447311, 29.897219)" id="NAV-Copy-2">
                                    <g transform="translate(0.000000, -1.685933)">
                                        <g id="Group-11">
                                            <g id="Navansatt-dame">
                                                <g transform="translate(0.000000, 1.264450)">
                                                    <path d="M27.7941482,20.6526841 L2.07694565,20.6526841 C0.929240867,20.6526841 0,19.6943215 0,18.5106486 L0,4.25103893 C0,3.06736598 0.929240867,2.10741674 2.07694565,2.10741674 L27.7941482,2.10741674 C28.941853,2.10741674 29.8726323,3.06736598 29.8726323,4.25103893 L29.8726323,18.5106486 C29.8726323,19.6943215 28.941853,20.6526841 27.7941482,20.6526841" id="Fill-97" fill="#D2242A"></path>
                                                    <path d="M21.3485326,12.2370016 C21.3485326,15.7389785 18.5406374,18.5813568 15.0757007,18.5813568 C11.6048713,18.5813568 8.79550292,15.7389785 8.79550292,12.2370016 C8.79550292,8.73502478 11.6048713,5.89264645 15.0757007,5.89264645 C18.5406374,5.89264645 21.3485326,8.73502478 21.3485326,12.2370016" id="Fill-98" fill="#FFFFFF"></path>
                                                    <polygon id="Fill-99" fill="#FFFFFF" points="6.94400101 15.0335208 5.7197823 15.0335208 7.02797269 11.7921076 8.25513778 11.7921076"></polygon>
                                                    <polygon id="Fill-100" fill="#FFFFFF" points="22.3728398 15.0335208 21.6141483 15.0335208 22.9223387 11.7921076 23.6810302 11.7921076"></polygon>
                                                    <polygon id="Fill-101" fill="#FFFFFF" points="24.4668283 15.0335208 24.1456735 15.0335208 25.4509175 11.7921076 25.7720724 11.7921076"></polygon>
                                                    <path d="M10.3075824,15.0178869 L11.271047,15.0178869 C11.3211354,15.0178869 11.3594382,14.9791746 11.3594382,14.9300397 L11.3594382,11.8970776 C11.3594382,11.8479427 11.3211354,11.8092304 11.271047,11.8092304 L10.2972701,11.8092304 C10.2324499,11.8092304 10.1853079,11.8598542 10.1853079,11.9238785 L9.80227917,12.8782863 C9.77870817,12.9274211 9.81701105,12.9869786 9.8685726,12.9869786 L10.1440586,12.9869786 C10.1853079,12.9869786 10.2206644,13.0182462 10.2206644,13.0644032 L10.2206644,14.9300397 C10.2206644,14.9791746 10.2589673,15.0178869 10.3075824,15.0178869" id="Fill-102" fill="#C52D35"></path>
                                                    <path d="M12.4008344,15.0178869 L13.3672453,15.0178869 C13.4173337,15.0178869 13.4600561,14.9791746 13.4600561,14.9300397 L13.4600561,11.8970776 C13.4600561,11.8479427 13.4173337,11.8092304 13.3672453,11.8092304 L11.8645942,11.8092304 C11.8012471,11.8092304 11.7511588,11.8598542 11.7511588,11.9238785 L11.3666569,12.8782863 L11.23407,12.9869786 L12.0030738,12.9869786 C12.1739635,12.9869786 12.3139163,13.1239607 12.3139163,13.2996551 L12.3139163,14.9300397 C12.3139163,14.9791746 12.3522192,15.0178869 12.4008344,15.0178869" id="Fill-103" fill="#C52D35"></path>
                                                    <path d="M16.7224296,11.8095282 L15.7560187,11.8095282 C15.7074035,11.8095282 15.6676274,11.8482405 15.6676274,11.8973754 L15.6676274,14.9303375 C15.6676274,14.9794724 15.7074035,15.0181847 15.7560187,15.0181847 L16.7327419,15.0181847 C16.7975621,15.0181847 16.8447041,14.9675609 16.8447041,14.9035367 L17.2277329,13.9491289 C17.2513039,13.8970161 17.2144742,13.8404365 17.1555467,13.8404365 L16.8888998,13.8404365 C16.8447041,13.8404365 16.8137672,13.8047021 16.8137672,13.7645008 L16.8137672,11.8973754 C16.8137672,11.8482405 16.7695716,11.8095282 16.7224296,11.8095282" id="Fill-104" fill="#C52D35"></path>
                                                    <path d="M12.7474754,15.0178869 L13.3824191,15.0178869 C13.444293,15.0178869 13.4943814,14.9657742 13.4943814,14.9047278 L13.8774101,13.9473421 C13.8995079,13.8967183 13.8626782,13.8386498 13.8066971,13.8386498 L13.538577,13.8386498 L12.7474754,15.0178869 Z" id="Fill-105" fill="#C52D35"></path>
                                                    <path d="M19.3084627,11.8095282 L20.4575489,11.8095282 C20.51353,11.8095282 20.5533061,11.8631299 20.5297351,11.9152426 L19.3128823,14.9690498 C19.3040432,15.0003175 19.2760526,15.0181847 19.2421693,15.0181847 L18.202099,15.0181847 L19.2333302,11.8616409 C19.2451157,11.8303733 19.2760526,11.8095282 19.3084627,11.8095282" id="Fill-106" fill="#C52D35"></path>
                                                    <path d="M17.8676855,11.8095282 L16.2427598,11.8095282 C16.1278512,11.8095282 16.7097602,11.9226873 16.7510094,12.0284017 L17.9000956,14.9169371 C17.9236666,14.9809613 17.9825941,15.0181847 18.0474143,15.0181847 L19.0329767,15.0181847 L18.0194238,11.9182205 C17.9973259,11.8497295 17.9354521,11.8095282 17.8676855,11.8095282" id="Fill-107" fill="#C52D35"></path>
                                                    <path d="M15.746001,12.8383828 C15.746001,13.4845809 15.6649757,13.5232932 15.6649757,13.5232932 C15.6649757,13.5232932 15.5736381,12.903896 15.1007449,12.903896 C14.6366909,12.903896 14.5306214,13.1778601 14.5306214,13.3818443 C14.5306214,13.6185851 14.7678046,13.8404365 14.9003914,13.8404365 L15.746001,13.8404365 L15.2465905,14.9586273 C15.2289122,14.9958507 15.1935557,15.0181847 15.1537797,15.0181847 L14.7692778,15.0181847 C14.3670976,15.0181847 13.316715,14.4851457 13.316715,13.4533132 C13.316715,12.4199918 14.0975043,11.8095282 14.7486531,11.8095282 C15.2863665,11.8095282 15.746001,12.1832511 15.746001,12.8383828 Z" id="Fill-108" fill="#C52D35"></path>
                                                    <path d="M16.4815634,5.05109997 L13.8165675,5.05109997 C13.6191604,5.05109997 13.4600561,4.89029491 13.4600561,4.69077752 L13.4600561,4.23665212 C13.4600561,4.03862366 13.6191604,3.87632967 13.8165675,3.87632967 L16.4815634,3.87632967 C16.6789706,3.87632967 16.8380748,4.03862366 16.8380748,4.23665212 L16.8380748,4.69077752 C16.8380748,4.89029491 16.6789706,5.05109997 16.4815634,5.05109997" id="Fill-109" fill="#5A1F57"></path>
                                                    <polygon id="Fill-110" fill="#C2B5CF" points="14.3775572 4.63631683 15.9214576 4.63631683 15.9214576 0.421483348 14.3775572 0.421483348"></polygon>
                                                </g>
                                            </g>
                                        </g>
                                    </g>
                                </g>
                            </g>
                        </g>
                        <path d="M10.9436173,19.0071694 C10.9436173,19.0071694 10.7682334,19.9893239 10.5411738,19.8277329 C10.2248563,19.70134 9.88661582,19.6261442 9.52645234,19.6245443 C7.97461752,19.6229444 6.71247941,20.9076723 6.70934755,22.4947833 L6.69368827,33.4767577 C6.69055641,35.0638687 7.94643081,36.3517964 9.50139749,36.3549962 C10.123071,36.3549962 10.6930688,36.1438081 11.1597154,35.7934277 C14.917943,53.4772357 28.3128926,65.9658994 44.28536,65.9930978 C60.2578274,66.0186964 73.6950571,53.5716304 77.5049603,35.9006217 C77.970041,36.2510021 78.5400388,36.46539 79.1632782,36.46699 C80.716679,36.4685899 81.9788171,35.1838619 81.980383,33.5983509 L81.9976082,22.6147766 C81.9991742,21.0276656 80.7432998,19.7397379 79.189899,19.736538 C78.8313015,19.736538 78.4899291,19.8117338 78.1751776,19.9365268 C42.1525658,24.1458907 29.5875582,0.00159991025 28.5258589,0 C28.5258589,0 13.4600639,13.9034558 10.9436173,19.0071694 Z" id="Fill-337-Copy-7" fill="#E7E5E2"></path>
                    </g>
                    <g id="mennesker/kvinne/⚙️/ansikt-forfra/-glad" transform="translate(28.448150, 46.195195)">
                        <g id="Group" transform="translate(11.772030, 0.000000)">
                            <path d="M3.91117285,9.65158765 C1.4777261,9.83351673 0.796630082,6.27338176 1.52985937,3.94836159 C1.6677603,3.50772604 2.47330349,1.50149902 3.89940082,1.50149902 C5.32381644,1.50149902 5.95277919,2.59808068 6.04022855,2.78668605 C7.08793921,5.05328862 6.57333333,9.45129877 3.91117285,9.65158765" id="Fill-42" fill="#635E59"></path>
                            <path d="M31.0699186,9.65158765 C33.5033653,9.83351673 34.1844613,6.27338176 33.451232,3.94836159 C33.3133311,3.50772604 32.5077879,1.50149902 31.0816906,1.50149902 C29.657275,1.50149902 29.0283122,2.59808068 28.9408629,2.78668605 C27.8931522,5.05328862 28.4077581,9.45129877 31.0699186,9.65158765" id="Fill-44" fill="#635E59"></path>
                            <path d="M18.2622385,13.7446233 C19.6933566,13.5259803 20.6707477,13.6631945 21.0207799,14.0895496 C22.3419817,15.7011186 21.9193857,17.4060864 19.6526808,18.8057223 C18.4609095,19.5413372 16.8204756,19.8002465 15.9520202,19.4187985 C15.5273543,19.2322743 15.0307413,19.4227379 14.8428041,19.8442109 C14.6548668,20.2656838 14.8467733,20.7585629 15.2714392,20.9450871 C16.7067771,21.5755244 18.9140941,21.2271442 20.5409457,20.222978 C23.6212633,18.3209559 24.3262051,15.4768613 22.3248758,13.0356903 C21.4779604,12.0041087 19.9787767,11.7936409 18.0063766,12.0949798 C17.5473891,12.1651029 17.2325829,12.5912342 17.3032372,13.0467707 C17.3738915,13.5023071 17.803251,13.8147464 18.2622385,13.7446233 Z" id="Stroke-46" fill="#D1BFA3" fill-rule="nonzero"></path>
                            <path d="M27.8473561,25.9131106 C27.7715069,26.0855353 27.5975687,26.4156704 27.3180279,26.8505274 C26.8448346,27.5866327 26.2506225,28.3246163 25.5289168,29.0128022 C23.3782875,31.0635449 20.5790561,32.2493722 17.0163499,32.1409169 C13.5424953,32.0351665 10.7557764,30.8676382 8.57091351,28.9849215 C7.76873336,28.2936755 7.10645359,27.5533948 6.57709126,26.8155043 C6.26492667,26.3803708 6.07000928,26.050452 5.98476059,25.8785301 C5.7797052,25.464993 5.27569723,25.2947354 4.85902728,25.498249 C4.44235732,25.7017626 4.27080982,26.201981 4.4758652,26.6155181 C4.59937601,26.8646035 4.83974092,27.2714473 5.20714474,27.78358 C5.81039644,28.6244666 6.56054342,29.4629631 7.46836604,30.2452423 C9.93478138,32.3705754 13.086808,33.6911535 16.9647917,33.8092064 C21.0031144,33.9321403 24.2315914,32.5644735 26.6940517,30.2163828 C27.5174185,29.4312575 28.1942266,28.5906935 28.7357771,27.7482511 C29.0650826,27.2359794 29.279266,26.8294589 29.3885897,26.5809376 C29.5744022,26.1585377 29.380016,25.6666167 28.9544161,25.4822014 C28.5288161,25.297786 28.0331685,25.4907107 27.8473561,25.9131106 Z" id="Stroke-48" fill="#D19E9C" fill-rule="nonzero"></path>
                        </g>
                    </g>
                </g>
            </g>
        </g>
    </g>
</svg>